<svg width="14" height="14" viewBox="0 0 14 14" fill="none" xmlns="http://www.w3.org/2000/svg">
<path d="M13.02 2.94C13.5612 2.39876 13.5612 1.52122 13.02 0.979986C12.4787 0.438753 11.6012 0.438757 11.06 0.979994L6.99998 5.04L2.93998 0.979995C2.39875 0.438759 1.52123 0.438758 0.979994 0.979994C0.438758 1.52123 0.438758 2.39875 0.979994 2.93998L5.04 6.99998L0.979995 11.06C0.438758 11.6012 0.438753 12.4787 0.979986 13.02C1.52122 13.5612 2.39875 13.5612 2.94 13.02L6.99998 8.96L11.06 13.02C11.6012 13.5612 12.4787 13.5612 13.02 13.02C13.5612 12.4787 13.5612 11.6012 13.02 11.06L8.96 6.99998L13.02 2.94Z" fill="#9C3E5C"/>
</svg>
