<svg width="89" height="100" viewBox="0 0 89 100" fill="none" xmlns="http://www.w3.org/2000/svg">
<path d="M2.11552 99.7716C11.4388 95.4055 17.3605 86.5109 22.1397 78.3011C27.4173 69.2345 31.335 59.4874 33.7717 49.4525C35.1315 43.8536 36.0174 38.1666 36.3964 32.4406C36.4142 32.1734 35.9675 32.1769 35.9459 32.4406C34.3199 52.3107 27.0872 72.0261 14.3484 88.2392C10.9384 92.5793 6.88154 96.5589 1.6679 99.0678C1.16101 99.3107 1.60863 100.009 2.11552 99.7716Z" fill="#634D41"/>
<path d="M33.2403 50.3387C33.3127 43.0773 32.0215 35.8314 32.502 28.57C32.9619 21.6224 35.6891 15.3665 39.8711 9.61801C42.1027 6.54969 44.6126 3.35427 47.5825 0.853972C47.2721 0.687977 46.9628 0.521978 46.6524 0.355983C45.5023 3.63525 45.5587 7.31827 45.5587 10.7324C45.5587 14.3419 45.5672 17.9428 45.2277 21.542C44.5863 28.3357 42.8625 35.081 39.4498 41.1675C37.6423 44.3914 35.4324 47.528 32.7212 50.1718C32.9817 50.3569 33.2421 50.541 33.5026 50.726C37.2549 44.9119 39.7169 38.7795 40.8172 32.0896C41.9297 25.3305 41.9325 18.4348 43.2782 11.7085C44.0202 7.99955 45.2662 4.47647 47.4104 1.24562C47.6831 0.834954 46.9966 0.473564 46.7126 0.870396C42.8654 6.25832 39.1244 11.7111 36.6051 17.7561C35.3289 20.8175 34.3848 23.993 33.8958 27.2429C33.371 30.7314 33.2713 34.2666 33.1236 37.7818C32.9497 41.9248 32.8547 46.0686 32.8575 50.2142C32.8575 50.6716 33.6258 50.6716 33.6305 50.2142C33.6973 43.1516 33.6334 35.9905 34.4224 28.9582C35.1568 22.4117 37.6978 16.2595 41.1153 10.5145C43.0159 7.31913 45.1355 4.22402 47.4113 1.24389C47.179 1.11853 46.9458 0.994029 46.7135 0.868668C42.9415 6.1736 42.1309 12.797 41.4651 18.957C40.7118 25.9313 40.4034 33.0086 38.1107 39.7461C36.8374 43.4905 35.075 47.0361 32.6431 50.2617C32.313 50.7001 33.0277 51.1635 33.4246 50.8159C38.5696 46.3055 42.0378 40.7793 44.1848 34.5657C46.5734 27.6527 47.2035 20.3766 47.1753 13.1601C47.1668 11.0705 47.1292 8.97822 47.1997 6.88858C47.2721 4.74189 47.5495 2.62459 47.7442 0.489131C47.794 -0.0581348 46.991 -0.14891 46.707 0.230631C44.6747 2.95572 42.2099 5.40846 40.1316 8.11453C38.0288 10.8526 36.148 13.7463 34.7035 16.8284C31.6124 23.4285 31.2137 30.4305 31.6463 37.5216C31.9068 41.7917 32.3243 46.0557 32.2857 50.337C32.2839 50.9015 33.2346 50.9024 33.2403 50.3387Z" fill="#634D41"/>
<path d="M32.6958 55.4456C39.1837 49.9375 43.7344 42.9277 49.628 36.9389C52.4398 34.0815 55.5836 31.4576 59.2408 29.5443C63.2648 27.4391 67.7271 26.1535 72.2044 25.142C77.5412 23.9359 83.0013 23.2719 88.4914 23.0852C88.419 22.8405 88.3465 22.595 88.275 22.3503C80.7311 26.2114 75.0237 32.3169 68.7173 37.6028C62.1241 43.13 54.9789 48.2101 46.754 51.5136C42.0059 53.4208 37.1035 54.4738 31.9773 55.041C32.093 55.4352 32.2096 55.8295 32.3253 56.2237C39.7517 52.4421 46.7681 48.249 53.572 43.5804C60.3627 38.9196 67.002 34.0564 74.088 29.7717C76.0441 28.589 78.0312 27.4512 80.0606 26.3774C82.436 25.1212 84.8933 23.8036 87.6628 23.5045C87.6186 23.2028 87.5735 22.901 87.5293 22.5984C83.2486 23.2927 78.9462 24.0033 74.7943 25.2103C70.7242 26.393 66.9597 28.142 63.5018 30.4434C56.7092 34.9642 50.8852 40.6141 44.7443 45.8308C41.1576 48.8784 37.4346 51.7747 33.4557 54.3831C33.0127 54.6735 33.4228 55.3488 33.8892 55.0643C40.7946 50.8591 46.6694 45.4063 52.6711 40.2043C58.9342 34.7757 65.4268 29.1786 73.6827 26.4872C78.2503 24.9976 83.037 24.2446 87.7964 23.4889C88.3465 23.4016 88.2261 22.5232 87.6628 22.5829C83.4253 23.0307 79.5715 25.4714 76.0299 27.4996C72.3275 29.6195 68.754 31.9244 65.2369 34.2951C58.3013 38.9723 51.5821 43.9271 44.4435 48.3476C40.3593 50.8764 36.1509 53.317 31.6275 55.1274C30.9833 55.3859 31.3304 56.3248 31.9764 56.3101C40.7947 56.1113 49.5028 52.4266 56.7148 47.9974C64.1629 43.4239 70.4552 37.6219 76.7654 31.8311C80.3926 28.5025 84.1532 25.2647 88.7058 23.0316C89.0829 22.8466 88.908 22.2889 88.4895 22.2967C83.6426 22.3832 78.8221 22.8552 74.0598 23.6904C69.5035 24.4892 64.9406 25.5717 60.7144 27.3587C52.7548 30.7244 47.1594 37.1965 42.0416 43.5017C38.8734 47.4052 35.7597 51.3562 31.9548 54.7669C31.4733 55.2001 32.2031 55.864 32.6958 55.4456Z" fill="#634D41"/>
<path d="M27.2536 64.7898C21.472 59.4511 18.2765 52.2831 16.6881 44.9888C15.7759 40.8 15.3631 36.5507 15.0922 32.291C14.8421 28.359 14.5741 24.3976 14.7339 20.4578C14.9088 16.1454 15.6875 11.8537 18.1016 8.09028C17.8204 8.05656 17.5392 8.02285 17.258 7.98913C18.2003 11.7301 19.1501 15.4572 20.2325 19.167C21.3309 22.9313 22.4528 26.6939 23.3255 30.5083C24.2029 34.3426 24.7531 38.2063 24.9618 42.1202C25.1697 46.0167 25.1537 49.9194 25.3418 53.8159C25.5487 58.1024 26.1317 62.2298 27.3966 66.365C27.6382 66.2362 27.879 66.1065 28.1207 65.9777C26.6687 64.5632 25.9258 62.7122 25.1565 60.9338C24.4089 59.2056 23.7064 57.4618 23.0491 55.7033C21.7108 52.1205 20.5607 48.4764 19.6241 44.7882C17.7188 37.2882 16.7079 29.5875 16.8273 21.8817C16.895 17.5122 17.3332 13.1566 18.1561 8.85282C17.8514 8.81478 17.5467 8.77674 17.242 8.7387C16.8743 24.3172 23.3669 39.1011 24.5076 54.5352C24.786 58.3064 24.6468 62.273 26.8135 65.6362C27.1088 66.0944 27.8884 65.6785 27.5922 65.2177C25.5853 62.1019 25.6747 58.4232 25.4368 54.9234C25.1875 51.256 24.628 47.611 23.9274 43.9954C22.4876 36.5611 20.4366 29.2357 19.1887 21.7685C18.4664 17.4483 18.0668 13.1099 18.173 8.73784C18.1843 8.26752 17.352 8.14043 17.2589 8.62371C14.2703 24.1996 16.3947 40.289 21.8999 55.1958C22.6851 57.3217 23.5371 59.426 24.455 61.507C25.2487 63.3079 26.0518 65.0967 27.5085 66.5396C27.8075 66.8362 28.3426 66.5267 28.2326 66.1523C26.0038 58.6263 26.5653 50.624 26.1957 42.9104C25.827 35.2167 24.0036 27.8212 21.7645 20.4249C20.4949 16.2318 19.0523 12.037 18.1505 7.76088C18.0705 7.38221 17.5053 7.37357 17.3069 7.65974C12.5879 14.4448 13.1776 22.9633 13.5161 30.6648C13.8801 38.9576 14.8844 47.3931 18.5275 55.0695C20.3924 58.9989 22.9926 62.6336 26.3255 65.6422C26.9273 66.1921 27.8527 65.3431 27.2536 64.7898Z" fill="#634D41"/>
<path d="M23.5286 77.7503C29.7814 72.7549 35.5273 67.1621 42.3462 62.7935C49.3297 58.3185 57.2283 55.7949 65.597 54.5594C70.4316 53.8461 75.302 53.6127 80.1856 53.3862C80.0953 53.081 80.006 52.7758 79.9157 52.4706C72.573 55.6583 66.7518 60.7116 60.8028 65.6776C54.4654 70.9679 47.7141 75.9676 39.1367 77.6397C33.7368 78.6918 28.2044 78.4281 22.9061 77.0552C22.9061 77.3647 22.9061 77.6751 22.9061 77.9846C31.2334 76.1293 39.5203 74.1702 47.2956 70.7811C54.5011 67.6402 60.5648 62.9698 67.1797 58.9574C70.9046 56.6983 74.7801 54.7505 79.0561 53.528C79.6006 53.3724 79.5386 52.5026 78.9141 52.5657C70.9451 53.3637 63.0269 55.041 55.986 58.6764C48.9376 62.3162 42.9632 67.4249 36.1301 71.3681C32.2698 73.5961 28.1489 75.3814 23.6885 76.3143C22.9926 76.4595 23.2907 77.4149 23.981 77.2912C31.634 75.9166 38.1482 71.6509 44.2421 67.4024C50.7498 62.8652 57.2095 58.4421 65.0788 56.1139C69.5702 54.7851 74.23 54.0147 78.9132 53.5453C78.8662 53.2245 78.8182 52.9038 78.7712 52.583C71.3241 54.4669 65.107 58.8848 58.9323 62.956C55.7123 65.0794 52.435 67.1327 48.9329 68.8471C45.0735 70.7362 41.0137 72.2431 36.8655 73.5045C32.1983 74.9241 27.4266 76.0886 22.6258 77.0552C22.0992 77.1607 22.1547 77.8523 22.6258 77.9846C31.4591 80.4719 41.23 79.3152 49.2207 75.1195C56.4336 71.3318 62.0902 65.6085 68.3186 60.658C71.9307 57.7868 75.87 55.0323 80.3257 53.3689C80.8532 53.1718 80.8307 52.4067 80.1837 52.4041C71.5573 52.3608 62.6441 53.068 54.4117 55.5545C46.28 58.0107 39.5062 62.541 33.2205 67.775C29.6291 70.7655 26.19 73.9082 22.591 76.8909C21.9563 77.4175 22.8901 78.2604 23.5286 77.7503Z" fill="#634D41"/>
<path d="M15.5155 87.0547C18.5069 78.5933 15.1581 69.9857 12.6181 61.8312C10.2012 54.0709 9.14232 46.021 6.7217 38.2642C5.40042 34.0305 3.60705 29.9714 1.07829 26.2218C0.731275 25.7074 -0.13765 26.0402 0.0184587 26.6325C2.31494 35.3351 0.860114 44.3256 0.681436 53.1545C0.596799 57.3537 0.78206 61.5883 1.7394 65.707C2.66758 69.6987 4.476 73.3454 6.7706 76.8227C9.33793 80.7123 12.3012 84.3521 14.419 88.4838C14.6212 88.8781 15.3218 88.6809 15.303 88.2634C14.9277 80.0094 13.6459 71.8904 11.0692 63.9624C9.78273 60.0035 8.30629 56.1165 7.45898 52.0487C6.67186 48.268 6.22235 44.438 5.57629 40.6374C4.85876 36.4175 3.89954 32.1916 1.91621 28.3045C1.69522 28.461 1.4742 28.6184 1.25321 28.7748C2.01776 29.565 1.99143 30.8065 2.10898 31.8025C2.22748 32.8115 2.32435 33.8221 2.40616 34.8345C2.56415 36.8031 2.65441 38.7752 2.72306 40.7472C2.85942 44.63 2.90082 48.5153 3.12746 52.3946C3.34939 56.1943 3.74623 60.0001 4.58884 63.7307C5.41452 67.3895 6.76684 70.8676 8.49344 74.2454C10.5266 78.2233 12.8306 82.0965 14.0691 86.3683C14.2102 86.855 15.0218 86.6501 14.8901 86.1599C13.8989 82.4639 12.0407 79.0645 10.2398 75.659C8.3204 72.0296 6.67656 68.3656 5.68348 64.4232C3.70016 56.5444 3.85909 48.396 3.54405 40.3634C3.45471 38.0749 3.32964 35.7864 3.11899 33.504C2.96664 31.8535 3.11899 29.5417 1.84943 28.2241C1.58235 27.9475 0.97861 28.2405 1.14412 28.6019C4.35375 35.6368 4.85688 43.1939 6.2327 50.63C6.97938 54.6666 8.24985 58.5303 9.58148 62.4295C10.8886 66.2569 11.9936 70.1396 12.8043 74.082C13.7635 78.7463 14.3701 83.51 14.3531 88.2616C14.6635 88.2227 14.9738 88.1847 15.2851 88.1458C11.8996 80.6942 5.73428 74.5627 3.52526 66.6278C1.19492 58.2554 2.48044 49.5208 2.68828 41.0049C2.80865 36.0804 2.51335 31.1264 1.13471 26.3472C0.781114 26.4838 0.428476 26.6212 0.074881 26.7578C4.697 33.2965 6.5308 41.0732 8.19815 48.6069C9.02571 52.3462 9.81284 56.0957 10.8736 59.7865C12.0745 63.9658 13.6271 68.0586 14.6428 72.2829C15.792 77.0665 16.1964 82.0818 14.5826 86.8161C14.3973 87.3668 15.3246 87.5968 15.5155 87.0547Z" fill="#634D41"/>
<path d="M10.7955 94.5876C24.2631 89.3052 37.6254 80.7296 52.9466 82.0005C57.391 82.3688 61.604 83.5533 65.9496 84.3841C65.9496 84.187 65.9496 83.9907 65.9496 83.7945C58.0793 85.6982 50.1244 87.3962 42.3199 89.5187C38.705 90.5017 35.2603 91.8279 31.7883 93.1637C28.4 94.4666 24.9148 95.715 21.2425 96.1092C17.4 96.5216 13.4173 95.9891 10.2303 93.8692C10.1682 94.0819 10.1052 94.2937 10.0422 94.5064C17.1348 95.1781 24.0233 93.1853 30.4162 90.532C33.7716 89.1392 37.0132 87.5467 40.6375 86.8161C44.1932 86.0994 47.8448 86.0311 51.4635 85.8219C53.3914 85.7103 55.3173 85.5824 57.2292 85.3239C59.441 85.0247 61.5918 84.3392 63.8196 84.1585C64.1685 84.1299 64.1788 83.6639 63.8196 83.6518C62.0488 83.5939 60.3627 84.0011 58.621 84.2345C56.8042 84.4783 54.9713 84.6097 53.1384 84.6971C49.6081 84.8648 46.0675 84.9054 42.5654 85.393C35.3807 86.3933 29.3573 90.3608 22.5177 92.3821C18.4796 93.5752 14.2835 94.2159 10.0422 93.8233C9.63689 93.7862 9.5908 94.285 9.85411 94.4605C15.5455 98.2412 22.9992 97.0334 29.1053 94.8695C32.7475 93.5787 36.2561 91.9948 39.9538 90.8346C43.9017 89.5965 47.968 88.7 52.0033 87.7386C56.7101 86.6173 61.4159 85.4933 66.1264 84.3858C66.465 84.3063 66.4189 83.8939 66.1264 83.7962C58.9219 81.3763 51.2736 80.0336 43.6299 81.0936C36.0615 82.144 29.0028 85.068 22.2045 88.1804C18.2031 90.0124 14.2317 91.9014 10.1381 93.5562C9.36886 93.8648 10.0356 94.8859 10.7955 94.5876Z" fill="#634D41"/>
<path d="M62.3055 83.593C57.721 83.4651 53.1873 82.5391 48.5934 82.6325C44.1076 82.7242 39.6558 84.0348 35.3609 85.1233C31.1526 86.1902 27.1116 87.5743 23.112 89.1746C21.045 90.0012 18.9846 90.8424 16.8818 91.5902C14.8044 92.3294 12.6763 92.8758 10.5651 93.5156C10.109 93.6539 10.3027 94.2236 10.7588 94.1623C14.8722 93.6072 18.8548 91.8202 22.655 90.3453C26.7749 88.7458 30.9118 87.2977 35.217 86.1694C39.5476 85.0343 44.0757 83.6605 48.5934 83.4011C53.1798 83.1383 57.7304 83.9449 62.3055 84.059C62.6328 84.0677 62.6319 83.6017 62.3055 83.593Z" fill="#634D41"/>
</svg>
