<svg width="298" height="463" viewBox="0 0 298 463" fill="none" xmlns="http://www.w3.org/2000/svg">
<path d="M250.246 190.756L248.748 181.106C247.88 175.511 243.491 171.122 237.896 170.254L228.246 168.756L237.896 167.258C243.491 166.39 247.88 162 248.748 156.406L250.246 146.756L251.744 156.406C252.612 162 257.001 166.39 262.596 167.258L272.246 168.756L262.596 170.254C257.001 171.122 252.612 175.511 251.744 181.106L250.246 190.756Z" fill="white"/>
<path d="M-116.754 231.256C-116.754 197.339 -95.0537 166.488 -59.6652 144.066C-24.289 121.652 24.6441 107.756 78.7461 107.756C132.848 107.756 181.781 121.652 217.157 144.066C252.546 166.488 274.246 197.339 274.246 231.256C274.246 265.173 252.546 296.024 217.157 318.446C181.781 340.86 132.848 354.756 78.7461 354.756C24.6441 354.756 -24.289 340.86 -59.6652 318.446C-95.0537 296.024 -116.754 265.173 -116.754 231.256Z" stroke="white" stroke-width="2"/>
<path d="M-41.6622 77.1338C-15.0432 56.3376 22.5353 54.5251 61.9312 68.6744C101.313 82.8186 142.358 112.874 175.68 155.526C209.002 198.177 228.233 245.276 232.428 286.909C236.625 328.558 225.774 364.581 199.155 385.378C172.536 406.174 134.957 407.986 95.5611 393.837C56.1796 379.693 15.134 349.638 -18.1879 306.986C-51.5098 264.334 -70.7406 217.236 -74.9357 175.602C-79.1324 133.953 -68.2812 97.9301 -41.6622 77.1338Z" stroke="white" stroke-width="2"/>
</svg>
