<svg width="311" height="463" viewBox="0 0 311 463" fill="none" xmlns="http://www.w3.org/2000/svg">
<path d="M47.2461 271.756L48.7438 281.406C49.6121 287 54.0015 291.39 59.5962 292.258L69.2461 293.756L59.5962 295.253C54.0015 296.122 49.6121 300.511 48.7438 306.106L47.2461 315.756L45.7484 306.106C44.8801 300.511 40.4907 296.122 34.896 295.253L25.2461 293.756L34.896 292.258C40.4907 291.39 44.8801 287 45.7484 281.406L47.2461 271.756Z" fill="white"/>
<path d="M414.246 231.256C414.246 265.173 392.546 296.024 357.157 318.446C321.781 340.86 272.848 354.756 218.746 354.756C164.644 354.756 115.711 340.86 80.3348 318.446C44.9462 296.024 23.2461 265.173 23.2461 231.256C23.2461 197.339 44.9462 166.487 80.3348 144.066C115.711 121.652 164.644 107.756 218.746 107.756C272.848 107.756 321.781 121.652 357.157 144.066C392.546 166.487 414.246 197.339 414.246 231.256Z" stroke="white" stroke-width="2"/>
<path d="M339.155 385.378C312.535 406.174 274.957 407.986 235.561 393.837C196.18 379.693 155.134 349.638 121.812 306.986C88.4902 264.334 69.2594 217.236 65.0642 175.602C60.8676 133.953 71.7188 97.93 98.3378 77.1338C124.957 56.3376 162.535 54.5251 201.931 68.6744C241.313 82.8185 282.358 112.874 315.68 155.526C349.002 198.177 368.233 245.276 372.428 286.909C376.625 328.558 365.774 364.581 339.155 385.378Z" stroke="white" stroke-width="2"/>
</svg>
