<svg width="23" height="24" viewBox="0 0 23 24" fill="none" xmlns="http://www.w3.org/2000/svg">
<path d="M19.3333 10.6666H11.8333V3.16659C11.8333 2.70575 11.4608 2.33325 10.9999 2.33325C10.5391 2.33325 10.1666 2.70575 10.1666 3.16659V10.6666H2.66659C2.20575 10.6666 1.83325 11.0391 1.83325 11.4999C1.83325 11.9608 2.20575 12.3333 2.66659 12.3333H10.1666V19.8333C10.1666 20.2941 10.5391 20.6666 10.9999 20.6666C11.4608 20.6666 11.8333 20.2941 11.8333 19.8333V12.3333H19.3333C19.7941 12.3333 20.1666 11.9608 20.1666 11.4999C20.1666 11.0391 19.7941 10.6666 19.3333 10.6666Z" fill="#9C3E5C"/>
</svg>
