<svg width="20" height="20" viewBox="0 0 20 20" fill="none" xmlns="http://www.w3.org/2000/svg">
<path d="M0.0451819 10.9353H19.9558V10.9356H0.0451819V10.9353ZM1.08222 5.47631H18.918V5.4766H1.08222V5.47631ZM0.372958 7.29569H19.6266V7.29598H0.372958V7.29569ZM4.29808 18.2133H15.7023L15.7029 18.2126H4.29745L4.29808 18.2133ZM10 0C9.8036 0 9.60875 0.00709344 9.41532 0.0181558H10.5849C10.3913 0.00709344 10.1964 0 10 0ZM0.0413818 9.11549H19.9583V9.11579H0.0413818V9.11549Z" fill="#C42126"/>
<path d="M12.9556 3.6569H17.7307C17.1635 2.96643 16.5043 2.35521 15.774 1.83777H12.1884C12.4851 2.35977 12.7402 2.97572 12.9556 3.6569Z" fill="#E7E7E7"/>
<path d="M12.1884 1.83772H15.7741C14.2918 0.787259 12.5121 0.129427 10.5849 0.0181274H10.277C11.1841 0.132298 11.6007 0.803642 12.1884 1.83772Z" fill="#DC3027"/>
<path d="M19.6272 7.29588C19.4511 6.66768 19.2136 6.05836 18.918 5.47675H13.4244C13.5357 6.06081 13.6236 6.67089 13.6886 7.29588H19.6272Z" fill="#E7E7E7"/>
<path d="M13.1154 5.47641H18.9178C18.5871 4.82605 18.1899 4.21576 17.7307 3.65698H12.6621C12.8408 4.22273 12.9926 4.83302 13.1154 5.47641Z" fill="#DC3027"/>
<path d="M13.8989 10.9349H19.955C19.9837 10.6272 20 10.3153 20 10.0002C20 9.70193 19.9844 9.40746 19.9588 9.11566H13.9004C13.9201 9.72193 13.9197 10.3287 13.8989 10.9349Z" fill="#E7E7E7"/>
<path d="M19.959 9.11533C19.905 8.49998 19.794 7.89098 19.6272 7.2962H13.4335C13.4957 7.89193 13.5367 8.50141 13.5568 9.11533H19.959Z" fill="#DC3027"/>
<path d="M13.3198 14.5739H18.8916C19.1913 13.9927 19.4328 13.3832 19.6126 12.7545H13.5892C13.5229 13.3804 13.4329 13.9903 13.3198 14.5739Z" fill="#E7E7E7"/>
<path d="M19.6129 12.7544C19.7833 12.16 19.8979 11.5509 19.9552 10.9352H13.7102C13.6889 11.5496 13.6466 12.1589 13.5831 12.7544H19.6129Z" fill="#DC3027"/>
<path d="M15.7028 18.2126C16.4436 17.6973 17.1122 17.0854 17.6883 16.3935H12.9965C12.7772 17.0775 12.5168 17.6925 12.2147 18.2126H15.7028Z" fill="#E7E7E7"/>
<path d="M12.8199 16.3933H17.6883C18.1528 15.8352 18.5561 15.2249 18.8916 14.5739H13.2789C13.1544 15.2178 13.0011 15.8284 12.8199 16.3933ZM9.63754 19.9929C9.61731 19.9922 9.59713 19.9913 9.5769 19.9907C9.59713 19.9913 9.61735 19.9922 9.63754 19.9929ZM9.99994 20C12.12 20 14.0844 19.3382 15.7022 18.2132H12.083C11.4407 19.3199 11.0169 20 9.99994 20Z" fill="#DC3027"/>
<path d="M10.0001 20C9.87862 20 9.75799 19.9972 9.6377 19.9929C9.75925 19.997 9.88001 20 10.0001 20Z" fill="#C42126"/>
<path d="M12.5195 1.83777H4.22623C3.49581 2.35521 2.83676 2.96639 2.26941 3.6569H13.2866C13.0712 2.97572 12.8162 2.35977 12.5195 1.83777Z" fill="#F3F4F5"/>
<path d="M4.2262 1.83772H12.5195C11.9317 0.803642 11.184 0.132298 10.2769 0.0181274H9.41526C7.488 0.129427 5.70835 0.787259 4.2262 1.83772Z" fill="#E73625"/>
<path d="M0.373047 7.29588H14.0039C13.9388 6.67077 13.851 6.06081 13.7397 5.47675H1.08231C0.786713 6.05836 0.549146 6.66768 0.373047 7.29588Z" fill="#F3F4F5"/>
<path d="M2.2694 3.65686C1.81057 4.21564 1.413 4.82588 1.08252 5.47629H13.7398C13.6171 4.83302 13.4653 4.22277 13.2866 3.65686H2.2694Z" fill="#E73625"/>
<path d="M0.00012207 10.0002C0.00012207 10.3153 0.0165468 10.6272 0.0451316 10.9349H14.1261C14.1469 10.3302 14.1472 9.72084 14.1275 9.11578H0.0413316C0.0157445 9.40746 0.00012207 9.70192 0.00012207 10.0002Z" fill="#F3F4F5"/>
<path d="M0.0413818 9.11533H14.1274C14.1078 8.50769 14.0667 7.90093 14.0041 7.2962H0.372958C0.206191 7.89097 0.095186 8.49998 0.0413818 9.11533Z" fill="#E73625"/>
<path d="M13.999 12.7543H0.387451C0.567257 13.3831 0.808749 13.9925 1.10841 14.5738H13.7296C13.8427 13.9903 13.9325 13.3804 13.999 12.7543Z" fill="#F3F4F5"/>
<path d="M0.387467 12.7544H13.999C14.0624 12.1589 14.1048 11.5495 14.1261 10.9352H0.045166C0.102493 11.5509 0.217089 12.1599 0.387467 12.7544Z" fill="#E73625"/>
<path d="M4.29742 18.2126H12.489C12.7911 17.6924 13.0516 17.0775 13.2708 16.3935H2.31189C2.88916 17.0862 3.55699 17.698 4.29742 18.2126Z" fill="#F3F4F5"/>
<path d="M1.10864 14.5739C1.44419 15.2249 1.84742 15.8352 2.31195 16.3933H13.2709C13.4518 15.8284 13.6051 15.2178 13.7297 14.5739H1.10864ZM9.57703 19.9907C9.59725 19.9913 9.61744 19.9922 9.63766 19.9929C9.758 19.9971 9.87863 20 10 20C11.017 20 11.8463 19.3199 12.4888 18.2132H4.29812C5.80746 19.263 7.61915 19.9091 9.57703 19.9907Z" fill="#E73625"/>
<path d="M9.79326 0.00518799C4.66879 0.109436 0.492107 4.0661 0.0426025 9.09902H9.79342V0.00518799H9.79326Z" fill="#283991"/>
<path d="M2.00105 5.66575L2.15339 6.13484H2.64698L2.24768 6.42492L2.40019 6.89435L2.00105 6.60411L1.60205 6.89435L1.75426 6.42492L1.35509 6.13484H1.84867L2.00105 5.66575ZM2.00105 7.32304L2.15339 7.79243H2.64698L2.24768 8.0825L2.40019 8.55194L2.00105 8.2617L1.60205 8.55194L1.75426 8.0825L1.35509 7.79243H1.84867L2.00105 7.32304ZM3.65864 3.1792L3.81102 3.64847H4.30444L3.90526 3.93871L4.05764 4.4078L3.65864 4.1179L3.25946 4.4078L3.41185 3.93871L3.0125 3.64847H3.50609L3.65864 3.1792ZM3.65864 4.83679L3.81102 5.30605H4.30444L3.90526 5.59595L4.05764 6.06539L3.65864 5.77549L3.25946 6.06539L3.41185 5.59595L3.0125 5.30605H3.50609L3.65864 4.83679ZM3.65864 6.49437L3.81102 6.96381H4.30444L3.90526 7.25354L4.05764 7.72297L3.65864 7.43278L3.25946 7.72297L3.41185 7.25354L3.0125 6.96381H3.50609L3.65864 6.49437ZM0.7426 7.72297L0.590092 7.25354L0.989267 6.96364H0.495977L0.484914 6.9294C0.430818 7.09752 0.381384 7.26711 0.33667 7.43797L0.343637 7.43278L0.7426 7.72297ZM1.60205 5.23676L2.00105 4.94657L2.40023 5.23676L2.24772 4.76733L2.64689 4.47713H2.15331L2.00093 4.00804L1.84854 4.47713H1.66665C1.63287 4.52831 1.60019 4.57978 1.56734 4.63171L1.7543 4.76733L1.60205 5.23676ZM3.65864 2.46032L4.05764 2.75022L3.90526 2.28112L4.30427 1.99092H4.01926C3.77732 2.1717 3.54376 2.36343 3.31929 2.56549L3.25913 2.75022L3.65864 2.46032ZM4.91705 1.92159L5.31622 1.6314L5.71523 1.92159L5.56285 1.45216L5.96185 1.16226H5.46844L5.44775 1.09909C5.28054 1.18451 5.11507 1.27339 4.95336 1.36797L5.06926 1.45212L4.91705 1.92159ZM5.31622 2.35058L5.46861 2.81955H5.96202L5.56285 3.10975L5.71523 3.57918L5.31622 3.28894L4.91705 3.57918L5.06943 3.10975L4.67013 2.81955H5.16367L5.31622 2.35058ZM5.31622 4.00816L5.46861 4.47713H5.96202L5.56285 4.76733L5.71523 5.23676L5.31622 4.94652L4.91705 5.23676L5.06943 4.76733L4.67013 4.47713H5.16367L5.31622 4.00816ZM5.31622 5.66575L5.46861 6.13484H5.96202L5.56285 6.42492L5.71523 6.89435L5.31622 6.60411L4.91705 6.89435L5.06943 6.42492L4.67013 6.13484H5.16367L5.31622 5.66575ZM5.31622 7.32304L5.46861 7.79243H5.96202L5.56285 8.0825L5.71523 8.55194L5.31622 8.2617L4.91705 8.55194L5.06943 8.0825L4.67013 7.79243H5.16367L5.31622 7.32304ZM6.97381 1.52162L7.12619 1.99088H7.61961L7.2206 2.28112L7.37282 2.75022L6.97381 2.46032L6.57451 2.75022L6.72702 2.28112L6.32771 1.99088H6.82126L6.97381 1.52162ZM6.97381 3.1792L7.12619 3.64847H7.61961L7.2206 3.93871L7.37282 4.4078L6.97381 4.1179L6.57451 4.4078L6.72702 3.93871L6.32771 3.64847H6.82126L6.97381 3.1792ZM6.97381 4.83679L7.12619 5.30605H7.61961L7.2206 5.59595L7.37282 6.06539L6.97381 5.77549L6.57451 6.06539L6.72702 5.59595L6.32771 5.30605H6.82126L6.97381 4.83679ZM6.97381 6.49437L7.12619 6.96381H7.61961L7.2206 7.25354L7.37282 7.72297L6.97381 7.43278L6.57451 7.72297L6.72702 7.25354L6.32771 6.96381H6.82126L6.97381 6.49437ZM8.63139 0.692993L8.78378 1.16226H9.27719L8.87802 1.45216L9.0304 1.92159L8.63139 1.63135L8.23209 1.92159L8.3846 1.45216L7.9853 1.16226H8.47872L8.63139 0.692993ZM8.63139 2.35058L8.78378 2.81955H9.27719L8.87802 3.10975L9.0304 3.57918L8.63139 3.28894L8.23209 3.57918L8.3846 3.10975L7.9853 2.81955H8.47872L8.63139 2.35058ZM8.63139 4.00816L8.78378 4.47713H9.27719L8.87802 4.76733L9.0304 5.23676L8.63139 4.94652L8.23209 5.23676L8.3846 4.76733L7.9853 4.47713H8.47872L8.63139 4.00816ZM8.63139 5.66575L8.78378 6.13484H9.27719L8.87802 6.42492L9.0304 6.89435L8.63139 6.60411L8.23209 6.89435L8.3846 6.42492L7.9853 6.13484H8.47872L8.63139 5.66575ZM8.63139 7.32304L8.78378 7.79243H9.27719L8.87802 8.0825L9.0304 8.55194L8.63139 8.2617L8.23209 8.55194L8.3846 8.0825L7.9853 7.79243H8.47872L8.63139 7.32304Z" fill="#EFEFEF"/>
</svg>
