<svg width="20" height="20" viewBox="0 0 20 20" fill="none" xmlns="http://www.w3.org/2000/svg">
<g clip-path="url(#clip0_2105_281)">
<path d="M25.2068 20H-4.47003C-4.61058 20 -4.74537 19.9445 -4.84476 19.8458C-4.94414 19.7471 -4.99998 19.6132 -5 19.4737V0.526339C-4.99998 0.38675 -4.94414 0.252883 -4.84476 0.154179C-4.74537 0.0554743 -4.61058 1.58094e-05 -4.47003 0H25.2069C25.3474 1.58094e-05 25.4822 0.0554743 25.5816 0.154179C25.681 0.252883 25.7368 0.38675 25.7369 0.526339V19.4737C25.7368 19.6133 25.681 19.7471 25.5816 19.8458C25.4822 19.9445 25.3474 20 25.2068 20Z" fill="#41479B"/>
<path d="M-5 3.68433H25.7368V16.3158H-5V3.68433Z" fill="#F5F5F5"/>
<path d="M13.122 10.0001L14.4987 7.63184H11.7453L10.3684 5.26324L8.99145 7.63184H6.23804L7.61477 10.0001L6.23804 12.3683H8.99145L10.3684 14.7369L11.7453 12.3683H14.4987L13.122 10.0001ZM13.148 8.40638L12.6718 9.22558L12.1955 8.40638H13.148ZM12.2215 10.0001L11.295 11.5938H9.44163L8.51521 10.0001L9.44169 8.40638H11.2951L12.2215 10.0001ZM10.3684 6.81234L10.8448 7.6319H9.89194L10.3684 6.81234ZM7.58872 8.40638H8.54114L8.0649 9.22558L7.58872 8.40638ZM7.58872 11.5938L8.06496 10.7746L8.5412 11.5938H7.58872ZM10.3684 13.1878L9.89194 12.3682H10.8448L10.3684 13.1878ZM12.6718 10.7746L13.148 11.5938H12.1956L12.6718 10.7746Z" fill="#41479B"/>
</g>
<defs>
<clipPath id="clip0_2105_281">
<rect width="20" height="20" rx="10" fill="white"/>
</clipPath>
</defs>
</svg>
