<svg width="24" height="24" viewBox="0 0 24 24" fill="none" xmlns="http://www.w3.org/2000/svg">
<path d="M15.4727 12.887L16.9874 21.4109C17.0043 21.5113 16.9902 21.6144 16.947 21.7066C16.9037 21.7987 16.8334 21.8755 16.7453 21.9266C16.6573 21.9776 16.5558 22.0006 16.4543 21.9924C16.3528 21.9843 16.2563 21.9453 16.1776 21.8808L12.5984 19.1944C12.4256 19.0653 12.2158 18.9956 12.0001 18.9956C11.7844 18.9956 11.5745 19.0653 11.4017 19.1944L7.8166 21.8798C7.73794 21.9442 7.6415 21.9831 7.54016 21.9913C7.43882 21.9995 7.33739 21.9766 7.2494 21.9256C7.16141 21.8747 7.09105 21.7981 7.04771 21.7061C7.00436 21.6142 6.99009 21.5112 7.0068 21.4109L8.52043 12.887" stroke="#DFBA74" stroke-width="1.99951" stroke-linecap="round" stroke-linejoin="round"/>
<path d="M11.9966 13.9966C15.3095 13.9966 17.9951 11.3109 17.9951 7.99805C17.9951 4.68515 15.3095 1.99951 11.9966 1.99951C8.68368 1.99951 5.99805 4.68515 5.99805 7.99805C5.99805 11.3109 8.68368 13.9966 11.9966 13.9966Z" stroke="#DFBA74" stroke-width="1.99951" stroke-linecap="round" stroke-linejoin="round"/>
</svg>
