<svg width="24" height="24" viewBox="0 0 24 24" fill="none" xmlns="http://www.w3.org/2000/svg">
<path d="M11.998 6.99829V20.9949" stroke="#DFBA74" stroke-width="1.99951" stroke-linecap="round" stroke-linejoin="round"/>
<path d="M2.99976 17.9956C2.7346 17.9956 2.48031 17.8903 2.29282 17.7028C2.10533 17.5153 2 17.261 2 16.9958V3.99902C2 3.73387 2.10533 3.47958 2.29282 3.29209C2.48031 3.1046 2.7346 2.99927 2.99976 2.99927H7.99854C9.05914 2.99927 10.0763 3.42059 10.8263 4.17055C11.5762 4.92052 11.9976 5.93768 11.9976 6.99829C11.9976 5.93768 12.4189 4.92052 13.1688 4.17055C13.9188 3.42059 14.936 2.99927 15.9966 2.99927H20.9954C21.2605 2.99927 21.5148 3.1046 21.7023 3.29209C21.8898 3.47958 21.9951 3.73387 21.9951 3.99902V16.9958C21.9951 17.261 21.8898 17.5153 21.7023 17.7028C21.5148 17.8903 21.2605 17.9956 20.9954 17.9956H14.9968C14.2014 17.9956 13.4385 18.3116 12.876 18.8741C12.3136 19.4365 11.9976 20.1994 11.9976 20.9949C11.9976 20.1994 11.6816 19.4365 11.1191 18.8741C10.5566 18.3116 9.79375 17.9956 8.99829 17.9956H2.99976Z" stroke="#DFBA74" stroke-width="1.99951" stroke-linecap="round" stroke-linejoin="round"/>
</svg>
