<svg width="48" height="48" viewBox="0 0 48 48" fill="none" xmlns="http://www.w3.org/2000/svg">
<path d="M31.9922 39.9902V7.99805C31.9922 6.93744 31.5709 5.92027 30.8209 5.17031C30.0709 4.42035 29.0538 3.99902 27.9932 3.99902H19.9951C18.9345 3.99902 17.9173 4.42035 17.1674 5.17031C16.4174 5.92027 15.9961 6.93744 15.9961 7.99805V39.9902" stroke="#DFBA74" stroke-width="3.99902" stroke-linecap="round" stroke-linejoin="round"/>
<path d="M39.9912 11.9971H7.99902C5.79042 11.9971 4 13.7875 4 15.9961V35.9912C4 38.1998 5.79042 39.9902 7.99902 39.9902H39.9912C42.1998 39.9902 43.9902 38.1998 43.9902 35.9912V15.9961C43.9902 13.7875 42.1998 11.9971 39.9912 11.9971Z" stroke="#DFBA74" stroke-width="3.99902" stroke-linecap="round" stroke-linejoin="round"/>
</svg>
