<svg width="52" height="52" viewBox="0 0 52 52" fill="none" xmlns="http://www.w3.org/2000/svg">
<rect width="52" height="52" rx="16" fill="#FAF5F7" fill-opacity="0.6"/>
<path d="M34.6 20.2C35.3732 19.4268 35.3732 18.1732 34.6 17.4C33.8268 16.6268 32.5732 16.6268 31.8 17.4L26 23.2L20.2 17.4C19.4268 16.6268 18.1732 16.6268 17.4 17.4C16.6268 18.1732 16.6268 19.4268 17.4 20.2L23.2 26L17.4 31.8C16.6268 32.5732 16.6268 33.8268 17.4 34.6C18.1732 35.3732 19.4268 35.3732 20.2 34.6L26 28.8L31.8 34.6C32.5732 35.3732 33.8268 35.3732 34.6 34.6C35.3732 33.8268 35.3732 32.5732 34.6 31.8L28.8 26L34.6 20.2Z" fill="#BE800C"/>
</svg>
