<svg width="14" height="14" viewBox="0 0 14 14" fill="none" xmlns="http://www.w3.org/2000/svg">
<path d="M7 11.6667H12.25" stroke="#717182" stroke-width="1.16667" stroke-linecap="round" stroke-linejoin="round"/>
<path d="M9.55306 2.11292C9.78528 1.8807 10.1002 1.75024 10.4286 1.75024C10.7571 1.75024 11.072 1.8807 11.3042 2.11292C11.5364 2.34514 11.6669 2.6601 11.6669 2.98851C11.6669 3.31691 11.5364 3.63187 11.3042 3.86409L4.29839 10.8705C4.15962 11.0093 3.98807 11.1108 3.79964 11.1657L2.12431 11.6545C2.07412 11.6691 2.02091 11.67 1.97026 11.657C1.91961 11.6441 1.87338 11.6177 1.8364 11.5807C1.79943 11.5438 1.77308 11.4975 1.7601 11.4469C1.74713 11.3962 1.748 11.343 1.76264 11.2928L2.25148 9.61751C2.30644 9.42928 2.40795 9.25795 2.54664 9.11934L9.55306 2.11292Z" stroke="#717182" stroke-width="1.16667" stroke-linecap="round" stroke-linejoin="round"/>
</svg>
