<svg width="12" height="12" viewBox="0 0 12 12" fill="none" xmlns="http://www.w3.org/2000/svg">
<g clip-path="url(#clip0_50_1202)">
<path d="M8.28705 0.974609H3.41209C2.06591 0.974609 0.974609 2.06591 0.974609 3.41209V8.28705C0.974609 9.63323 2.06591 10.7245 3.41209 10.7245H8.28705C9.63323 10.7245 10.7245 9.63323 10.7245 8.28705V3.41209C10.7245 2.06591 9.63323 0.974609 8.28705 0.974609Z" stroke="#DFBA74" stroke-width="0.974992" stroke-linecap="round" stroke-linejoin="round"/>
<path d="M7.80075 5.54286C7.86092 5.94858 7.79162 6.36294 7.60271 6.727C7.41381 7.09106 7.11492 7.38629 6.74855 7.57069C6.38219 7.75509 5.96701 7.81927 5.56207 7.75411C5.15712 7.68895 4.78304 7.49776 4.49301 7.20774C4.20299 6.91772 4.0118 6.54363 3.94664 6.13869C3.88148 5.73374 3.94567 5.31856 4.13007 4.9522C4.31447 4.58584 4.6097 4.28695 4.97376 4.09804C5.33782 3.90914 5.75218 3.83984 6.15789 3.9C6.57174 3.96137 6.95488 4.15421 7.25071 4.45005C7.54654 4.74588 7.73939 5.12902 7.80075 5.54286Z" stroke="#DFBA74" stroke-width="0.974992" stroke-linecap="round" stroke-linejoin="round"/>
<path d="M8.53125 3.16895H8.53613" stroke="#DFBA74" stroke-width="0.974992" stroke-linecap="round" stroke-linejoin="round"/>
</g>
<defs>
<clipPath id="clip0_50_1202">
<rect width="11.7" height="11.6999" fill="white"/>
</clipPath>
</defs>
</svg>
