<svg width="11" height="11" viewBox="0 0 11 11" fill="none" xmlns="http://www.w3.org/2000/svg">
<g clip-path="url(#clip0_50_1207)">
<path d="M7.19329 3.59668C7.90864 3.59668 8.59468 3.88085 9.1005 4.38667C9.60633 4.89249 9.8905 5.57854 9.8905 6.29388V9.44061H8.09236V6.29388C8.09236 6.05543 7.99764 5.82675 7.82903 5.65814C7.66042 5.48954 7.43174 5.39481 7.19329 5.39481C6.95485 5.39481 6.72617 5.48954 6.55756 5.65814C6.38895 5.82675 6.29423 6.05543 6.29423 6.29388V9.44061H4.49609V6.29388C4.49609 5.57854 4.78026 4.89249 5.28609 4.38667C5.79191 3.88085 6.47795 3.59668 7.19329 3.59668Z" stroke="#DFBA74" stroke-width="0.899067" stroke-linecap="round" stroke-linejoin="round"/>
<path d="M2.69657 4.0459H0.898438V9.4403H2.69657V4.0459Z" stroke="#DFBA74" stroke-width="0.899067" stroke-linecap="round" stroke-linejoin="round"/>
<path d="M1.7975 2.69755C2.29405 2.69755 2.69657 2.29502 2.69657 1.79848C2.69657 1.30194 2.29405 0.899414 1.7975 0.899414C1.30096 0.899414 0.898438 1.30194 0.898438 1.79848C0.898438 2.29502 1.30096 2.69755 1.7975 2.69755Z" stroke="#DFBA74" stroke-width="0.899067" stroke-linecap="round" stroke-linejoin="round"/>
</g>
<defs>
<clipPath id="clip0_50_1207">
<rect width="10.7889" height="10.7888" fill="white"/>
</clipPath>
</defs>
</svg>
