<svg width="10" height="13" viewBox="0 0 10 13" fill="none" xmlns="http://www.w3.org/2000/svg">
<path d="M4.99998 0.900002C4.07172 0.900002 3.18148 1.26875 2.5251 1.92513C1.86872 2.58151 1.49998 3.47174 1.49998 4.4V5.8C1.12867 5.8 0.772577 5.9475 0.510026 6.21005C0.247475 6.4726 0.0999756 6.8287 0.0999756 7.2V10.7C0.0999756 11.0713 0.247475 11.4274 0.510026 11.69C0.772577 11.9525 1.12867 12.1 1.49998 12.1H8.49998C8.87128 12.1 9.22737 11.9525 9.48992 11.69C9.75248 11.4274 9.89998 11.0713 9.89998 10.7V7.2C9.89998 6.8287 9.75248 6.4726 9.48992 6.21005C9.22737 5.9475 8.87128 5.8 8.49998 5.8H2.89998V4.4C2.89914 3.88827 3.08518 3.39385 3.42315 3.00961C3.76112 2.62536 4.22777 2.37775 4.73542 2.31329C5.24307 2.24882 5.75679 2.37194 6.18008 2.6595C6.60337 2.94707 6.90708 3.37931 7.03418 3.875C7.08379 4.05115 7.20042 4.20087 7.35908 4.29208C7.51774 4.38329 7.70581 4.40874 7.883 4.36298C8.06019 4.31721 8.21242 4.20388 8.30707 4.04725C8.40171 3.89062 8.43126 3.70315 8.38938 3.525C8.19537 2.77362 7.75715 2.10801 7.14361 1.63284C6.53007 1.15767 5.776 0.899882 4.99998 0.900002Z" fill="#222222"/>
</svg>
