<svg width="32" height="32" viewBox="0 0 32 32" fill="none" xmlns="http://www.w3.org/2000/svg">
<path d="M26.6602 13.3301C26.6602 19.9858 19.2766 26.9174 16.7972 29.0582C16.5663 29.2319 16.2851 29.3258 15.9961 29.3258C15.7071 29.3258 15.4259 29.2319 15.195 29.0582C12.7156 26.9174 5.33203 19.9858 5.33203 13.3301C5.33203 10.5018 6.45556 7.78935 8.45546 5.78945C10.4554 3.78955 13.1678 2.66602 15.9961 2.66602C18.8244 2.66602 21.5368 3.78955 23.5367 5.78945C25.5366 7.78935 26.6602 10.5018 26.6602 13.3301Z" stroke="#DFBA74" stroke-width="2.66602" stroke-linecap="round" stroke-linejoin="round"/>
<path d="M15.9951 17.3291C18.2037 17.3291 19.9941 15.5387 19.9941 13.3301C19.9941 11.1215 18.2037 9.33105 15.9951 9.33105C13.7865 9.33105 11.9961 11.1215 11.9961 13.3301C11.9961 15.5387 13.7865 17.3291 15.9951 17.3291Z" stroke="#DFBA74" stroke-width="2.66602" stroke-linecap="round" stroke-linejoin="round"/>
</svg>
