<svg width="24" height="24" viewBox="0 0 24 24" fill="none" xmlns="http://www.w3.org/2000/svg">
<path d="M5.99609 17.9883H13.9909" stroke="#DFBA74" stroke-width="1.9987" stroke-linecap="round" stroke-linejoin="round"/>
<path d="M2.99805 21.9858H20.9863" stroke="#DFBA74" stroke-width="1.9987" stroke-linecap="round" stroke-linejoin="round"/>
<path d="M13.9915 21.9858C15.8468 21.9858 17.6262 21.2487 18.9381 19.9368C20.25 18.6249 20.987 16.8456 20.987 14.9903C20.987 13.135 20.25 11.3557 18.9381 10.0438C17.6262 8.73189 15.8468 7.99487 13.9915 7.99487H12.9922" stroke="#DFBA74" stroke-width="1.9987" stroke-linecap="round" stroke-linejoin="round"/>
<path d="M8.99414 13.9907H10.9928" stroke="#DFBA74" stroke-width="1.9987" stroke-linecap="round" stroke-linejoin="round"/>
<path d="M8.99479 11.9922C8.4647 11.9922 7.95633 11.7816 7.5815 11.4068C7.20667 11.032 6.99609 10.5236 6.99609 9.99349V5.99609H12.9922V9.99349C12.9922 10.5236 12.7816 11.032 12.4068 11.4068C12.032 11.7816 11.5236 11.9922 10.9935 11.9922H8.99479Z" stroke="#DFBA74" stroke-width="1.9987" stroke-linecap="round" stroke-linejoin="round"/>
<path d="M11.9915 5.99618V2.99813C11.9915 2.73308 11.8862 2.4789 11.6988 2.29148C11.5114 2.10407 11.2572 1.99878 10.9922 1.99878H8.99349C8.72845 1.99878 8.47426 2.10407 8.28684 2.29148C8.09943 2.4789 7.99414 2.73308 7.99414 2.99813V5.99618" stroke="#DFBA74" stroke-width="1.9987" stroke-linecap="round" stroke-linejoin="round"/>
</svg>
