<svg width="32" height="32" viewBox="0 0 32 32" fill="none" xmlns="http://www.w3.org/2000/svg">
<path d="M29.3255 22.5546V26.5536C29.327 26.9249 29.2509 27.2924 29.1022 27.6325C28.9535 27.9727 28.7353 28.278 28.4618 28.529C28.1882 28.78 27.8653 28.971 27.5136 29.09C27.1619 29.2089 26.7893 29.2531 26.4195 29.2197C22.3176 28.774 18.3775 27.3723 14.9157 25.1273C11.6949 23.0807 8.96422 20.3501 6.91761 17.1293C4.66479 13.6517 3.26282 9.69242 2.82527 5.5721C2.79196 5.20348 2.83577 4.83196 2.95391 4.4812C3.07205 4.13044 3.26193 3.80812 3.51146 3.53476C3.76099 3.2614 4.06471 3.043 4.40328 2.89345C4.74184 2.74391 5.10784 2.66649 5.47796 2.66614H9.47698C10.1239 2.65978 10.7511 2.88886 11.2416 3.3107C11.7321 3.73253 12.0525 4.31834 12.143 4.95892C12.3118 6.23869 12.6248 7.49527 13.0761 8.70467C13.2555 9.18179 13.2943 9.70031 13.188 10.1988C13.0816 10.6973 12.8346 11.1549 12.4762 11.5173L10.7833 13.2102C12.6809 16.5475 15.4441 19.3107 18.7814 21.2083L20.4743 19.5154C20.8367 19.157 21.2943 18.91 21.7928 18.8037C22.2913 18.6973 22.8098 18.7362 23.2869 18.9155C24.4963 19.3668 25.7529 19.6798 27.0327 19.8486C27.6802 19.94 28.2716 20.2661 28.6943 20.7651C29.1171 21.264 29.3417 21.9009 29.3255 22.5546Z" stroke="#DFBA74" stroke-width="2.66602" stroke-linecap="round" stroke-linejoin="round"/>
</svg>
