<svg width="24" height="24" viewBox="0 0 24 24" fill="none" xmlns="http://www.w3.org/2000/svg">
<path d="M11.9976 21.9946C17.5191 21.9946 21.9951 17.5186 21.9951 11.9971C21.9951 6.47557 17.5191 1.99951 11.9976 1.99951C6.47606 1.99951 2 6.47557 2 11.9971C2 17.5186 6.47606 21.9946 11.9976 21.9946Z" stroke="#DFBA74" stroke-width="1.99951" stroke-linecap="round" stroke-linejoin="round"/>
<path d="M11.9966 17.9956C15.3095 17.9956 17.9951 15.31 17.9951 11.9971C17.9951 8.68417 15.3095 5.99854 11.9966 5.99854C8.68368 5.99854 5.99805 8.68417 5.99805 11.9971C5.99805 15.31 8.68368 17.9956 11.9966 17.9956Z" stroke="#DFBA74" stroke-width="1.99951" stroke-linecap="round" stroke-linejoin="round"/>
<path d="M11.998 13.9976C13.1026 13.9976 13.998 13.1021 13.998 11.9976C13.998 10.893 13.1026 9.99756 11.998 9.99756C10.8935 9.99756 9.99805 10.893 9.99805 11.9976C9.99805 13.1021 10.8935 13.9976 11.998 13.9976Z" stroke="#DFBA74" stroke-width="1.99951" stroke-linecap="round" stroke-linejoin="round"/>
</svg>
