<svg width="24" height="24" viewBox="0 0 24 24" fill="none" xmlns="http://www.w3.org/2000/svg">
<path d="M15.9966 20.9949V18.9954C15.9966 17.9348 15.5753 16.9176 14.8253 16.1676C14.0753 15.4177 13.0582 14.9963 11.9976 14.9963H5.99902C4.93842 14.9963 3.92125 15.4177 3.17129 16.1676C2.42132 16.9176 2 17.9348 2 18.9954V20.9949" stroke="#DFBA74" stroke-width="1.99951" stroke-linecap="round" stroke-linejoin="round"/>
<path d="M8.99707 10.9973C11.2057 10.9973 12.9961 9.20689 12.9961 6.99829C12.9961 4.78969 11.2057 2.99927 8.99707 2.99927C6.78847 2.99927 4.99805 4.78969 4.99805 6.99829C4.99805 9.20689 6.78847 10.9973 8.99707 10.9973Z" stroke="#DFBA74" stroke-width="1.99951" stroke-linecap="round" stroke-linejoin="round"/>
<path d="M21.9954 20.9948V18.9953C21.9947 18.1092 21.6998 17.2485 21.1569 16.5482C20.6141 15.8479 19.854 15.3477 18.9961 15.1262" stroke="#DFBA74" stroke-width="1.99951" stroke-linecap="round" stroke-linejoin="round"/>
<path d="M15.9961 3.12915C16.8563 3.3494 17.6187 3.84968 18.1632 4.55111C18.7077 5.25255 19.0032 6.11525 19.0032 7.0032C19.0032 7.89116 18.7077 8.75386 18.1632 9.45529C17.6187 10.1567 16.8563 10.657 15.9961 10.8773" stroke="#DFBA74" stroke-width="1.99951" stroke-linecap="round" stroke-linejoin="round"/>
</svg>
