<svg width="24" height="24" viewBox="0 0 24 24" fill="none" xmlns="http://www.w3.org/2000/svg">
<path d="M3.99926 13.9965C3.81007 13.9971 3.62458 13.9441 3.46434 13.8435C3.3041 13.7429 3.17569 13.599 3.09403 13.4283C3.01237 13.2576 2.9808 13.0673 3.003 12.8794C3.0252 12.6915 3.10026 12.5138 3.21945 12.3669L13.117 2.16939C13.1913 2.08369 13.2924 2.02578 13.4039 2.00516C13.5154 1.98454 13.6306 2.00244 13.7306 2.05592C13.8306 2.1094 13.9094 2.19528 13.9542 2.29946C13.9989 2.40365 14.0069 2.51995 13.9768 2.62928L12.0573 8.64781C12.0007 8.79929 11.9817 8.96225 12.0019 9.1227C12.0221 9.28314 12.0809 9.43629 12.1734 9.56901C12.2658 9.70172 12.389 9.81004 12.5325 9.88466C12.6759 9.95929 12.8353 9.998 12.9971 9.99748H19.9954C20.1845 9.99683 20.37 10.0499 20.5303 10.1505C20.6905 10.251 20.8189 10.395 20.9006 10.5657C20.9822 10.7363 21.0138 10.9267 20.9916 11.1145C20.9694 11.3024 20.8944 11.4802 20.7752 11.6271L10.8776 21.8246C10.8033 21.9103 10.7022 21.9682 10.5907 21.9888C10.4792 22.0094 10.364 21.9915 10.264 21.9381C10.164 21.8846 10.0852 21.7987 10.0404 21.6945C9.99571 21.5903 9.98772 21.474 10.0178 21.3647L11.9373 15.3462C11.9939 15.1947 12.0129 15.0317 11.9927 14.8713C11.9725 14.7108 11.9137 14.5577 11.8213 14.425C11.7289 14.2923 11.6056 14.1839 11.4622 14.1093C11.3187 14.0347 11.1593 13.996 10.9976 13.9965H3.99926Z" stroke="#DFBA74" stroke-width="1.99951" stroke-linecap="round" stroke-linejoin="round"/>
</svg>
