<svg width="28" height="27" viewBox="0 0 28 27" fill="none" xmlns="http://www.w3.org/2000/svg">
<path d="M14 6.51172C17.6914 6.51172 20.7383 9.55859 20.7383 13.25C20.7383 17 17.6914 19.9883 14 19.9883C10.25 19.9883 7.26172 17 7.26172 13.25C7.26172 9.55859 10.25 6.51172 14 6.51172ZM14 17.6445C16.4023 17.6445 18.3359 15.7109 18.3359 13.25C18.3359 10.8477 16.4023 8.91406 14 8.91406C11.5391 8.91406 9.60547 10.8477 9.60547 13.25C9.60547 15.7109 11.5977 17.6445 14 17.6445ZM22.5547 6.27734C22.5547 7.15625 21.8516 7.85938 20.9727 7.85938C20.0938 7.85938 19.3906 7.15625 19.3906 6.27734C19.3906 5.39844 20.0938 4.69531 20.9727 4.69531C21.8516 4.69531 22.5547 5.39844 22.5547 6.27734ZM27.0078 7.85938C27.125 10.0273 27.125 16.5312 27.0078 18.6992C26.8906 20.8086 26.4219 22.625 24.8984 24.207C23.375 25.7305 21.5 26.1992 19.3906 26.3164C17.2227 26.4336 10.7188 26.4336 8.55078 26.3164C6.44141 26.1992 4.625 25.7305 3.04297 24.207C1.51953 22.625 1.05078 20.8086 0.933594 18.6992C0.816406 16.5312 0.816406 10.0273 0.933594 7.85938C1.05078 5.75 1.51953 3.875 3.04297 2.35156C4.625 0.828125 6.44141 0.359375 8.55078 0.242188C10.7188 0.125 17.2227 0.125 19.3906 0.242188C21.5 0.359375 23.375 0.828125 24.8984 2.35156C26.4219 3.875 26.8906 5.75 27.0078 7.85938ZM24.1953 20.9844C24.8984 19.2852 24.7227 15.1836 24.7227 13.25C24.7227 11.375 24.8984 7.27344 24.1953 5.51562C23.7266 4.40234 22.8477 3.46484 21.7344 3.05469C19.9766 2.35156 15.875 2.52734 14 2.52734C12.0664 2.52734 7.96484 2.35156 6.26562 3.05469C5.09375 3.52344 4.21484 4.40234 3.74609 5.51562C3.04297 7.27344 3.21875 11.375 3.21875 13.25C3.21875 15.1836 3.04297 19.2852 3.74609 20.9844C4.21484 22.1562 5.09375 23.0352 6.26562 23.5039C7.96484 24.207 12.0664 24.0312 14 24.0312C15.875 24.0312 19.9766 24.207 21.7344 23.5039C22.8477 23.0352 23.7852 22.1562 24.1953 20.9844Z" fill="#571C33"/>
</svg>
