<svg width="27" height="27" viewBox="0 0 27 27" fill="none" xmlns="http://www.w3.org/2000/svg">
<path d="M13.5 7.01172C17.1914 7.01172 20.2383 10.0586 20.2383 13.75C20.2383 17.5 17.1914 20.4883 13.5 20.4883C9.75 20.4883 6.76172 17.5 6.76172 13.75C6.76172 10.0586 9.75 7.01172 13.5 7.01172ZM13.5 18.1445C15.9023 18.1445 17.8359 16.2109 17.8359 13.75C17.8359 11.3477 15.9023 9.41406 13.5 9.41406C11.0391 9.41406 9.10547 11.3477 9.10547 13.75C9.10547 16.2109 11.0977 18.1445 13.5 18.1445ZM22.0547 6.77734C22.0547 7.65625 21.3516 8.35938 20.4727 8.35938C19.5938 8.35938 18.8906 7.65625 18.8906 6.77734C18.8906 5.89844 19.5938 5.19531 20.4727 5.19531C21.3516 5.19531 22.0547 5.89844 22.0547 6.77734ZM26.5078 8.35938C26.625 10.5273 26.625 17.0312 26.5078 19.1992C26.3906 21.3086 25.9219 23.125 24.3984 24.707C22.875 26.2305 21 26.6992 18.8906 26.8164C16.7227 26.9336 10.2188 26.9336 8.05078 26.8164C5.94141 26.6992 4.125 26.2305 2.54297 24.707C1.01953 23.125 0.550781 21.3086 0.433594 19.1992C0.316406 17.0312 0.316406 10.5273 0.433594 8.35938C0.550781 6.25 1.01953 4.375 2.54297 2.85156C4.125 1.32812 5.94141 0.859375 8.05078 0.742188C10.2188 0.625 16.7227 0.625 18.8906 0.742188C21 0.859375 22.875 1.32812 24.3984 2.85156C25.9219 4.375 26.3906 6.25 26.5078 8.35938ZM23.6953 21.4844C24.3984 19.7852 24.2227 15.6836 24.2227 13.75C24.2227 11.875 24.3984 7.77344 23.6953 6.01562C23.2266 4.90234 22.3477 3.96484 21.2344 3.55469C19.4766 2.85156 15.375 3.02734 13.5 3.02734C11.5664 3.02734 7.46484 2.85156 5.76562 3.55469C4.59375 4.02344 3.71484 4.90234 3.24609 6.01562C2.54297 7.77344 2.71875 11.875 2.71875 13.75C2.71875 15.6836 2.54297 19.7852 3.24609 21.4844C3.71484 22.6562 4.59375 23.5352 5.76562 24.0039C7.46484 24.707 11.5664 24.5312 13.5 24.5312C15.375 24.5312 19.4766 24.707 21.2344 24.0039C22.3477 23.5352 23.2852 22.6562 23.6953 21.4844Z" fill="#222222"/>
</svg>
