<svg width="24" height="25" viewBox="0 0 24 25" fill="none" xmlns="http://www.w3.org/2000/svg">
<path d="M22.4845 10.3086H22.4396C20.3732 10.3086 18.4865 9.67969 16.9592 8.55664V16.5977C16.9592 20.6406 13.6799 23.875 9.63689 23.875C5.59392 23.875 2.35955 20.6406 2.35955 16.5977C2.35955 12.5547 5.59392 9.27539 9.63689 9.27539C9.99627 9.27539 10.3107 9.32031 10.6701 9.36523V13.4082C10.3107 13.2734 9.99627 13.2285 9.63689 13.2285C7.79509 13.2285 6.26775 14.7559 6.26775 16.5977C6.26775 18.4395 7.79509 19.9668 9.63689 19.9668C11.4787 19.9668 13.006 18.4395 13.006 16.5977V0.875H16.9592C16.9592 0.919922 16.9592 0.919922 16.9592 0.964844C16.9592 1.2793 16.9592 1.59375 17.049 1.9082C17.3185 3.39062 18.217 4.69336 19.4748 5.50195C20.3283 6.08594 21.3615 6.40039 22.4396 6.40039C22.4396 6.40039 22.4396 6.40039 22.4845 6.40039V10.3086Z" fill="#571C33"/>
</svg>
