<svg width="21" height="24" viewBox="0 0 21 24" fill="none" xmlns="http://www.w3.org/2000/svg">
<path d="M20.9847 9.80859H20.9397C18.8733 9.80859 16.9866 9.17969 15.4593 8.05664V16.0977C15.4593 20.1406 12.18 23.375 8.13701 23.375C4.09404 23.375 0.859669 20.1406 0.859669 16.0977C0.859669 12.0547 4.09404 8.77539 8.13701 8.77539C8.49639 8.77539 8.81084 8.82031 9.17022 8.86523V12.9082C8.81084 12.7734 8.49639 12.7285 8.13701 12.7285C6.29522 12.7285 4.76787 14.2559 4.76787 16.0977C4.76787 17.9395 6.29522 19.4668 8.13701 19.4668C9.97881 19.4668 11.5062 17.9395 11.5062 16.0977V0.375H15.4593C15.4593 0.419922 15.4593 0.419922 15.4593 0.464844C15.4593 0.779297 15.4593 1.09375 15.5491 1.4082C15.8187 2.89062 16.7171 4.19336 17.9749 5.00195C18.8284 5.58594 19.8616 5.90039 20.9397 5.90039C20.9397 5.90039 20.9397 5.90039 20.9847 5.90039V9.80859Z" fill="#222222"/>
</svg>
